<?xml version="1.0" encoding="UTF-8"?>
<!DOCTYPE svg PUBLIC "-//W3C//DTD SVG 1.1//EN" "http://www.w3.org/Graphics/SVG/1.1/DTD/svg11.dtd">
<!-- Creator: CorelDRAW Standard 2021 (64-Bit) -->
<svg xmlns="http://www.w3.org/2000/svg" xml:space="preserve" width="1024px" height="1024px" version="1.1" style="shape-rendering:geometricPrecision; text-rendering:geometricPrecision; image-rendering:optimizeQuality; fill-rule:evenodd; clip-rule:evenodd"
viewBox="0 0 1024 1024"
 xmlns:xlink="http://www.w3.org/1999/xlink"
 xmlns:xodm="http://www.corel.com/coreldraw/odm/2003">
 <defs>
  <style type="text/css">
   <![CDATA[
    .fil3 {fill:#0E191C}
    .fil5 {fill:#0E191E}
    .fil2 {fill:#0F1A1D}
    .fil4 {fill:#11191F}
    .fil7 {fill:#111E23}
    .fil6 {fill:#121B1F}
    .fil0 {fill:#121D20}
    .fil8 {fill:#131E21}
    .fil1 {fill:#EBECE9}
    .fil9 {fill:#EDEDE9}
    .fil12 {fill:#EDEEED}
    .fil10 {fill:#EEF1EE}
    .fil11 {fill:#F0F0EE}
   ]]>
  </style>
 </defs>
 <g id="Warstwa_x0020_1">
  <metadata id="CorelCorpID_0Corel-Layer"/>
  <g id="_1816321274576">
   <path class="fil0" d="M475.017 177.154c10.933,-1.924 46.614,-0.55 62.251,-0.759 2.449,-0.032 8.258,-0.224 10.411,0.147l5.783 2.23c3.905,-6.06 2.376,47.289 2.291,48.729 6.697,3.933 13.314,7.709 21.547,8.701 4.728,-7.001 27.125,-28.213 35.915,-32.874 5.176,2.046 23.929,20.874 29.3,25.963 5.016,4.749 9.197,8.76 14.053,13.583l12.581 13.99c-2.175,6.721 -29.283,31.955 -35.658,37.91l4.765 12.451c12.417,-0.451 48.179,-4.682 56.417,1.456 1.78,5.9 0.826,74.713 -0.738,76.943 -3.03,3.51 -4.748,2.901 -15.072,2.678l-31.23 -0.455c-2.064,-0.145 -5.92,-0.611 -7.739,-0.566l-4.394 0.871c-11.305,10.513 20.277,19.758 33.687,41.437 -2.675,10.919 -18.116,21.71 -25.836,30.122 -39.808,43.377 -22.532,28.682 -68.117,-8.97 -8.349,2.351 -8.74,6.152 -19.7,7.512 0.924,10.173 3.548,47.929 -1.017,54.355 -9.319,4.89 -68.227,2.994 -81.226,0.825l1.657 -54.772c-11.732,-3.314 -10.822,-5.568 -18.835,-8.832 -11.83,6.328 -22.137,29.603 -39.707,36.276 -4.97,0.084 -49.44,-44.697 -53.631,-53.062 5.696,-9.604 11.156,-17.002 18.152,-23.441 21.761,-20.03 17.603,-12.138 15.865,-22.72 -16.692,-0.628 -43.804,4.386 -60.043,0.829l-0.733 -79.611c10.262,-4.598 44.455,-2.653 57.807,-1.269l3.903 -8.513c-3.041,-5.858 -32.952,-35.298 -36.314,-39.62 1.113,-5.158 1.409,-5.177 4.87,-8.84l50.124 -46.658c12.378,4.183 27.828,25.442 37.87,33.07l20.098 -8.769 0.643 -50.347zm-80.354 -30.783c-41.94,-15.414 -75.994,-22.768 -117.938,1.86 -28.905,16.974 -50.851,46.609 -56.962,91.796 -29.622,-6.672 -72.798,10.823 -91.27,24.153 -22.051,15.913 -39.921,34.679 -53.016,64.444 -30.119,68.456 2.516,139.484 39.091,173.22 54.907,50.644 98.135,45.743 187.896,47.354 38.675,0.695 78.157,-0.464 116.886,-0.86 38.059,-0.388 78.543,-3.598 116.178,-2.162 18.532,0.707 36.574,2.069 55.243,2.786 19.911,0.764 38.923,-0.791 58.698,-0.542 39.158,0.493 78.255,-0.093 117.395,0.088 71.929,0.334 85.809,0.725 138.651,-37.212l28.683 -30.047c37.566,-48.857 32.675,-131.159 -1.934,-180.887 -30.929,-44.436 -83.609,-77.278 -164.032,-63.23 -3.152,-38.698 -32.245,-86.791 -51.402,-106.339 -13.263,-13.534 -24.153,-24.927 -42.942,-36.529 -76.101,-46.992 -177.517,-43.325 -242.019,10.506 -11.459,9.563 -29.225,27.664 -37.206,41.601z"/>
   <path class="fil1" d="M502.153 282.693c81.182,-17.655 110.926,98.718 29.387,120.496 -38.868,10.382 -69.49,-14.736 -77.62,-43.902 -10.991,-39.427 17.341,-69.876 48.233,-76.594zm-27.779 -55.192l-20.098 8.769c-10.042,-7.628 -25.492,-28.887 -37.87,-33.07l-50.124 46.658c-3.461,3.663 -3.757,3.682 -4.87,8.84 3.362,4.322 33.273,33.762 36.314,39.62l-3.903 8.513c-13.352,-1.384 -47.545,-3.329 -57.807,1.269l0.733 79.611c16.239,3.557 43.351,-1.457 60.043,-0.829 1.738,10.582 5.896,2.69 -15.865,22.72 -6.996,6.439 -12.456,13.837 -18.152,23.441 4.191,8.365 48.661,53.146 53.631,53.062 17.57,-6.673 27.877,-29.948 39.707,-36.276 8.013,3.264 7.103,5.518 18.835,8.832l-1.657 54.772c12.999,2.169 71.907,4.065 81.226,-0.825 4.565,-6.426 1.941,-44.182 1.017,-54.355 10.96,-1.36 11.351,-5.161 19.7,-7.512 45.585,37.652 28.309,52.347 68.117,8.97 7.72,-8.412 23.161,-19.203 25.836,-30.122 -13.41,-21.679 -44.992,-30.924 -33.687,-41.437l4.394 -0.871c1.819,-0.045 5.675,0.421 7.739,0.566l31.23 0.455c10.324,0.223 12.042,0.832 15.072,-2.678 1.564,-2.23 2.518,-71.043 0.738,-76.943 -8.238,-6.138 -44,-1.907 -56.417,-1.456l-4.765 -12.451c6.375,-5.955 33.483,-31.189 35.658,-37.91l-12.581 -13.99c-4.856,-4.823 -9.037,-8.834 -14.053,-13.583 -5.371,-5.089 -24.124,-23.917 -29.3,-25.963 -8.79,4.661 -31.187,25.873 -35.915,32.874 -8.233,-0.992 -14.85,-4.768 -21.547,-8.701 0.085,-1.44 1.614,-54.789 -2.291,-48.729l-5.783 -2.23c-2.153,-0.371 -7.962,-0.179 -10.411,-0.147 -15.637,0.209 -51.318,-1.165 -62.251,0.759l-0.643 50.347z"/>
   <path class="fil2" d="M416.657 799.271c15.003,5.755 65.589,3.015 84.657,1.671l-39.585 110.897c-6.288,16.991 -22.109,48.191 4.776,50.535 13.647,1.19 19.524,-7.986 24.245,-14.532 17.852,-24.748 58.796,-91.344 73.463,-116.475 9.598,-16.445 18.96,-31.423 28.167,-47.825 10.316,-18.374 31.882,-40.353 17.16,-48.458 -6.713,-2.889 -74.731,0.818 -88.708,0.895 9.995,-36.289 22.566,-73.783 33.389,-109.802 4.428,-14.736 21.606,-36.339 -4.74,-44.745 -19.738,-6.296 -26.559,13.835 -36.397,31.256 -8.53,15.104 -16.386,29.738 -25.096,45.693 -8.425,15.434 -71.181,133.791 -71.331,140.89z"/>
   <path class="fil3" d="M502.153 282.693c-30.892,6.718 -59.224,37.167 -48.233,76.594 8.13,29.166 38.752,54.284 77.62,43.902 81.539,-21.778 51.795,-138.151 -29.387,-120.496z"/>
   <path class="fil4" d="M855.448 852.71c23.636,-11.493 46.778,24.51 17.004,40.127 -22.705,11.911 -43.978,-27.01 -17.004,-40.127zm-47.892 27.689c3.132,27.834 30.941,53.328 62.896,50.33 27.718,-2.6 53.55,-31.912 50.761,-64.233 -2.915,-33.764 -27.141,-53.029 -64.209,-49.395 -33.537,3.289 -53.549,26.853 -49.448,63.298z"/>
   <path class="fil5" d="M156.299 850.788c28.864,-8.506 37.824,33.121 12.59,44.56 -14.148,6.414 -23.502,-4.626 -27.139,-14.821 -6.179,-17.317 0.772,-25.679 14.549,-29.739zm61.923 33.065c8.218,-33.117 -18.325,-60.214 -45.645,-65.29 -35.652,-6.625 -62.894,16.808 -67.028,46.348 -9.501,67.871 92.185,101.497 112.673,18.942z"/>
   <path class="fil6" d="M687.349 860.872c25.991,-12.374 43.229,25.656 17.352,40.297 -21.27,12.033 -43.927,-27.645 -17.352,-40.297zm-46.188 26.436c1.457,28.587 30.532,54.514 61.389,50.9 27.193,-3.184 51.74,-30.987 48.596,-62.974 -2.7,-27.466 -30.54,-55.01 -61.243,-50.692 -7.94,1.117 -14.451,4.308 -20.806,8.165 -19.931,12.097 -29.354,26.79 -27.936,54.601z"/>
   <path class="fil2" d="M328.349 859.137c11.351,-3.912 23.123,6.388 24.732,16.089 2.204,13.299 -5.382,24.787 -15.052,26.795 -21.113,4.385 -42.023,-31.736 -9.68,-42.884zm59.557 33.352c9.405,-33.976 -17.208,-58.12 -41.939,-66.017 -32.002,-10.219 -60.106,15.819 -65.231,40.666 -6.708,32.524 16.594,63.065 41.413,67.468 34.221,6.068 58.425,-15.629 65.757,-42.117z"/>
   <path class="fil7" d="M672.013 652.403c-2.868,1.473 -24.157,5.204 -22.029,25.534 1.71,16.343 17.659,20.015 34.013,19.989 18.919,-0.03 40.169,1.905 48.667,-10.682 5.009,-7.42 4.38,-14.855 -0.085,-22.995 -5.215,-9.507 -9.702,-6.82 -19.922,-11.846l-0.006 -43.182c0,-10.374 -1.864,-16.246 -10.732,-19.748 -8.976,-3.545 -18.795,-1.793 -25.078,3.92 -11.016,10.018 -4.034,42.709 -4.828,59.01z"/>
   <path class="fil7" d="M838.745 652.284c-1.268,0.71 -30.629,9.701 -19.105,31.781 9.779,18.734 73.073,18.224 81.737,-4.13 8.206,-21.177 -20.099,-28.437 -21.814,-29.26 -0.089,-31.648 9.283,-62.733 -22.951,-62.515 -31.546,0.214 -16.5,33.805 -17.867,64.124z"/>
   <path class="fil7" d="M143.661 650.675c-0.645,0.474 -27.341,8.432 -18.386,31.968 10.571,27.779 95.574,18.204 74.538,-20.861 -4.878,-9.059 -5.053,-5.77 -14.423,-11.107 -2.066,-30.53 10.584,-61.258 -21.028,-63.012 -33.83,-1.877 -17.704,36.001 -20.701,63.012z"/>
   <path class="fil8" d="M310.56 654.092c-12.022,5.139 -25.047,13.722 -18.09,30.655 5.721,13.926 20.77,16.385 39.376,15.573 30.89,-1.348 47.121,-16.586 35.768,-37.127 -3.896,-7.049 -9.672,-6.839 -17.601,-10.79 -0.429,-33.511 10.373,-64.509 -19.96,-64.587 -26.434,-0.068 -17.663,31.484 -19.493,66.276z"/>
   <path class="fil8" d="M847.736 724.325c-9.798,5.229 -9.629,24.885 -3.91,34.227 10.899,17.803 55.191,13.284 37.869,-25.905 -6.07,-13.734 -30.542,-10.145 -33.959,-8.322z"/>
   <path class="fil2" d="M680.968 728.235c-4.966,2.389 -7.484,4.875 -8.716,12.532 -6.657,41.358 62.744,42.004 41.928,-4.575 -4.124,-9.229 -21.792,-13.448 -33.212,-7.957z"/>
   <path class="fil2" d="M151.687 725.761c-22.4,9.021 -9.515,52.257 23.387,40.874 11.733,-4.059 16.392,-18.404 9.548,-30.982 -5.046,-9.275 -20.638,-14.845 -32.935,-9.892z"/>
   <path class="fil9" d="M156.299 850.788c-13.777,4.06 -20.728,12.422 -14.549,29.739 3.637,10.195 12.991,21.235 27.139,14.821 25.234,-11.439 16.274,-53.066 -12.59,-44.56z"/>
   <path class="fil4" d="M324.304 727.357c-20,3.681 -24.806,46.159 13.856,41.569 14.908,-1.769 17.434,-12.814 13.62,-27.767 -2.697,-10.573 -14.998,-16.099 -27.476,-13.802z"/>
   <path class="fil10" d="M855.448 852.71c-26.974,13.117 -5.701,52.038 17.004,40.127 29.774,-15.617 6.632,-51.62 -17.004,-40.127z"/>
   <path class="fil11" d="M687.349 860.872c-26.575,12.652 -3.918,52.33 17.352,40.297 25.877,-14.641 8.639,-52.671 -17.352,-40.297z"/>
   <path class="fil12" d="M328.349 859.137c-32.343,11.148 -11.433,47.269 9.68,42.884 9.67,-2.008 17.256,-13.496 15.052,-26.795 -1.609,-9.701 -13.381,-20.001 -24.732,-16.089z"/>
  </g>
 </g>
</svg>
